<?xml version="1.0" standalone="no"?>
<!DOCTYPE svg PUBLIC "-//W3C//DTD SVG 20010904//EN"
 "http://www.w3.org/TR/2001/REC-SVG-20010904/DTD/svg10.dtd">
<svg version="1.0" xmlns="http://www.w3.org/2000/svg"
 width="512.000000pt" height="512.000000pt" viewBox="0 0 512.000000 512.000000"
 preserveAspectRatio="xMidYMid meet">
<metadata>
Created by potrace 1.11, written by Peter Selinger 2001-2013
</metadata>
<g transform="translate(0.000000,512.000000) scale(0.100000,-0.100000)"
fill="#000000" stroke="none">
<path d="M764 5105 c-3 -8 -3 -23 2 -32 4 -10 8 -29 9 -43 0 -14 5 -31 9 -39
6 -10 5 -12 -2 -7 -14 9 -15 -3 -2 -24 5 -9 5 -19 -2 -27 -7 -9 -6 -14 6 -19
12 -5 14 -10 6 -19 -11 -13 -9 -42 3 -62 5 -7 5 -13 0 -13 -4 0 -8 -16 -8 -35
0 -19 2 -35 5 -35 12 0 9 -54 -2 -62 -9 -5 -8 -8 5 -8 17 0 17 -1 3 -16 -9 -8
-16 -20 -16 -27 0 -6 7 -2 15 9 13 18 14 17 9 -11 -2 -16 -7 -36 -10 -44 -3
-11 -1 -11 9 -3 11 9 13 7 12 -8 -1 -11 -4 -22 -7 -26 -4 -3 -4 -13 -1 -22 4
-9 2 -13 -4 -9 -5 3 -10 0 -10 -8 0 -8 6 -15 13 -15 7 0 16 -5 20 -12 5 -7 3
-8 -6 -3 -10 6 -12 4 -7 -7 3 -9 0 -21 -6 -27 -9 -9 -8 -14 2 -21 12 -7 12
-11 2 -24 -8 -9 -9 -16 -3 -16 5 0 12 -7 15 -14 4 -10 1 -13 -9 -9 -12 4 -13
1 -3 -23 14 -36 18 -84 7 -84 -16 0 -7 -20 10 -21 10 0 12 -3 5 -6 -7 -2 -13
-9 -13 -14 0 -6 4 -8 8 -5 5 3 8 -22 8 -54 -1 -33 2 -60 6 -60 3 0 5 -12 2
-26 -3 -17 1 -31 13 -41 10 -8 12 -12 6 -8 -7 3 -13 3 -14 -2 0 -4 -2 -16 -4
-25 -2 -9 3 -19 11 -22 12 -4 12 -10 4 -26 -6 -11 -7 -20 -3 -20 5 0 8 -21 8
-47 0 -27 7 -59 15 -73 10 -16 11 -22 3 -17 -7 5 -13 4 -13 -2 0 -5 4 -12 9
-15 5 -3 8 -24 7 -46 -1 -22 1 -40 6 -40 4 0 8 -5 8 -11 0 -5 -5 -7 -11 -3 -8
4 -9 0 -4 -15 12 -39 18 -76 18 -123 1 -26 5 -44 10 -41 5 3 4 -4 -2 -15 -8
-15 -7 -23 4 -32 14 -11 14 -15 -1 -31 -12 -13 -13 -19 -4 -19 8 0 11 -10 8
-30 -3 -17 -1 -33 4 -36 4 -3 3 -14 -3 -26 -8 -15 -8 -19 0 -13 8 4 11 -4 11
-27 -1 -18 2 -50 5 -70 5 -25 3 -43 -5 -53 -11 -13 -10 -14 5 -9 15 6 16 4 6
-14 -6 -11 -8 -23 -3 -26 4 -2 7 -26 6 -53 -1 -26 4 -51 10 -55 8 -6 7 -8 -2
-8 -9 0 -10 -6 -4 -17 4 -10 7 -42 7 -70 -1 -29 2 -53 7 -53 4 0 8 -9 8 -21 0
-11 -4 -17 -10 -14 -13 8 0 -27 14 -38 8 -6 7 -10 -1 -14 -9 -3 -10 -10 -3
-24 6 -10 8 -30 4 -44 -3 -14 -1 -31 5 -39 8 -10 9 -16 1 -21 -6 -3 -8 -10 -6
-14 4 -6 15 -119 18 -181 1 -22 -4 -30 -14 -24 -9 5 -9 3 1 -9 7 -9 11 -26 8
-37 -3 -11 -1 -18 4 -14 23 14 -10 -48 -44 -82 -15 -15 -24 -30 -21 -35 3 -5
-2 -9 -10 -9 -9 0 -16 -4 -16 -9 0 -5 -21 -8 -47 -6 -27 1 -61 -2 -78 -6 -16
-5 -70 -11 -120 -14 -49 -3 -109 -9 -132 -14 -23 -4 -47 -4 -54 0 -8 4 -19 3
-26 -3 -7 -5 -19 -8 -27 -5 -8 3 -17 3 -20 0 -3 -3 -36 -7 -73 -8 -72 -2 -141
-11 -208 -26 -22 -4 -57 -9 -77 -9 l-38 0 0 -171 c0 -141 2 -170 13 -160 10 8
17 7 25 -1 9 -9 12 -9 12 -1 0 8 18 11 51 9 27 -1 52 1 54 4 2 4 29 6 59 5 31
-1 53 2 50 6 -3 5 -1 9 5 9 5 0 11 -6 14 -12 3 -10 9 -10 29 0 14 8 43 16 64
18 22 2 54 7 72 10 18 4 32 2 32 -3 0 -6 11 -8 25 -5 14 2 25 9 25 14 0 5 21
7 50 4 31 -4 50 -2 50 5 0 6 16 8 40 6 21 -2 44 1 50 7 8 8 13 8 18 -1 5 -8
13 -9 22 -3 8 6 34 10 58 10 29 0 48 6 62 20 11 11 20 15 20 9 0 -5 4 -7 10
-4 5 3 19 1 31 -6 17 -9 20 -8 13 3 -11 18 21 -7 63 -49 28 -28 31 -36 23 -58
-8 -20 -6 -27 5 -32 10 -3 13 -12 9 -25 -5 -18 -6 -57 -2 -103 1 -8 6 -15 11
-15 6 0 6 -5 0 -12 -6 -7 -8 -22 -6 -33 3 -11 6 -31 7 -45 1 -14 4 -30 8 -35
4 -6 3 -17 -1 -24 -5 -7 -3 -32 4 -55 7 -23 12 -60 10 -83 -2 -30 3 -48 17
-63 11 -12 14 -20 7 -20 -33 0 -318 -124 -504 -220 -116 -59 -233 -115 -261
-124 -29 -9 -81 -35 -117 -56 -36 -22 -75 -40 -87 -40 -28 0 -78 -26 -112 -58
l-28 -26 0 -358 0 -358 413 0 c386 0 423 2 582 25 94 14 194 25 224 25 52 0
53 -1 49 -25 -5 -25 -5 -25 68 -25 71 0 74 1 74 24 0 44 79 428 124 601 24 94
61 217 81 275 61 169 95 296 115 430 18 121 71 295 106 348 30 45 6 32 -49
-28 -31 -33 -85 -102 -121 -153 l-65 -94 -164 -54 c-142 -47 -163 -51 -153
-34 7 11 11 45 9 75 -1 30 -4 82 -5 115 -2 33 -6 65 -10 71 -4 6 -6 34 -4 62
2 29 -1 55 -6 58 -5 3 -8 18 -7 32 2 15 0 33 -4 40 -5 7 -3 12 4 12 8 0 9 3 0
13 -6 8 -8 17 -4 20 3 4 2 7 -4 7 -5 0 -8 14 -5 31 3 20 9 28 18 25 8 -3 11 0
8 9 -3 8 4 20 15 27 12 7 21 20 21 29 0 9 9 19 21 22 27 7 90 -3 108 -17 12
-9 13 -8 7 3 -7 11 0 13 33 9 22 -2 41 0 41 3 0 4 8 6 18 4 9 -1 24 1 33 6 9
5 19 5 23 2 9 -9 97 -4 115 7 8 4 25 4 38 -1 13 -5 23 -5 23 0 0 5 16 11 35
13 33 4 36 2 45 -31 34 -129 38 -262 8 -327 -19 -42 -22 -66 -22 -164 0 -75 5
-125 14 -145 14 -30 14 -30 20 32 4 34 12 69 19 77 17 20 22 76 8 76 -8 0 -8
3 -2 8 16 11 41 47 28 39 -6 -4 -14 -3 -18 3 -3 5 -1 10 4 10 6 0 11 5 11 11
0 5 -6 7 -12 3 -7 -4 -4 3 7 16 11 13 14 20 6 15 -10 -5 -12 -4 -7 3 4 7 14
12 23 12 10 0 13 6 9 16 -3 9 -6 18 -6 20 0 3 -4 2 -10 -1 -6 -3 -10 4 -10 17
0 18 2 20 10 8 8 -12 10 -12 16 4 4 10 3 21 -2 25 -5 3 -10 17 -12 31 -2 24
-2 24 9 5 11 -18 48 -55 55 -55 2 0 0 7 -3 17 -4 10 -2 14 4 10 6 -4 14 -1 16
5 4 10 6 10 6 1 1 -8 8 -10 19 -6 15 6 15 5 3 -10 -17 -21 -7 -35 13 -18 16
13 28 2 23 -21 -2 -7 -2 -10 0 -5 3 4 11 7 19 7 9 0 12 -5 8 -12 -5 -8 0 -9
15 -5 15 4 26 -1 33 -13 11 -17 13 -17 25 -2 12 15 12 15 6 -2 -5 -15 -3 -18
10 -13 11 4 14 2 11 -8 -3 -8 3 -16 15 -20 12 -3 19 -10 16 -15 -3 -5 0 -12 7
-16 7 -4 10 -3 5 1 -8 10 21 45 37 45 6 0 4 -5 -4 -10 -13 -8 -12 -10 4 -10
12 0 16 -5 13 -15 -7 -16 9 -30 17 -16 7 11 46 2 46 -10 0 -5 7 -9 16 -9 8 0
35 -9 59 -20 70 -32 149 -49 186 -41 50 12 118 48 174 95 27 22 59 48 69 56
11 8 33 28 48 44 15 15 28 25 28 22 0 -9 70 61 70 71 1 4 18 21 38 38 20 16
55 50 77 75 22 26 43 42 46 37 9 -13 31 2 26 17 -3 7 1 13 9 13 7 0 16 -7 18
-14 3 -8 2 -12 -3 -9 -5 3 -11 -1 -15 -9 -3 -8 -2 -15 3 -15 12 0 45 41 67 83
10 21 22 41 26 43 13 8 9 -21 -4 -35 -9 -10 -9 -12 -1 -7 6 3 15 2 18 -4 4 -6
3 -10 -2 -9 -23 4 -32 -2 -26 -18 5 -12 3 -14 -7 -8 -9 6 -11 4 -5 -5 4 -7 2
-16 -6 -21 -11 -7 -11 -9 -1 -9 7 0 15 7 18 15 4 8 10 12 15 9 5 -3 7 -11 3
-17 -3 -7 4 -2 15 11 12 14 22 45 27 80 3 31 8 65 10 74 1 10 -1 18 -7 18 -5
0 -9 -8 -10 -17 0 -12 -2 -13 -6 -5 -3 7 0 25 6 40 6 15 13 38 16 51 7 37 15
38 15 0 0 -50 11 -61 56 -57 22 2 45 8 52 12 20 12 91 13 96 1 3 -5 5 -5 5 2
1 7 7 10 15 7 8 -3 17 -1 20 5 4 6 18 6 35 1 16 -4 32 -5 36 -2 4 4 30 8 58
10 94 5 138 10 144 16 3 3 13 0 21 -7 13 -9 14 -9 8 1 -4 6 -4 12 1 13 45 4
65 3 70 -4 2 -4 11 -3 18 3 7 6 59 13 114 14 62 2 107 8 116 16 8 7 15 8 15 3
0 -5 11 -10 25 -11 14 -1 25 2 25 6 0 10 82 9 98 -1 7 -5 12 -3 12 4 0 6 8 9
20 6 11 -3 22 -2 25 3 2 4 26 8 52 8 27 0 66 3 88 7 22 3 69 8 105 10 36 2 65
4 65 5 0 1 8 3 18 5 9 2 17 -2 17 -7 0 -6 9 -3 19 6 10 10 22 13 25 8 6 -11
66 -3 66 9 0 5 5 9 11 9 5 0 8 -4 5 -9 -3 -5 8 -6 27 -2 17 4 60 7 94 7 44 -1
64 3 68 12 3 8 5 79 5 158 0 130 -2 144 -17 145 -10 1 -30 3 -45 5 -16 1 -28
-1 -28 -6 0 -4 -10 -8 -22 -8 -13 0 -54 -4 -93 -7 -38 -4 -91 -8 -117 -8 -27
-1 -48 -5 -48 -10 0 -9 -40 -5 -59 7 -10 6 -12 5 -7 -2 8 -13 2 -14 -94 -19
-92 -4 -153 -11 -205 -23 -27 -6 -85 -11 -127 -13 -43 -1 -78 -4 -78 -7 0 -3
-21 -6 -47 -7 -27 -1 -60 -4 -75 -6 -16 -2 -28 0 -28 5 0 5 -4 7 -8 4 -14 -9
-74 -17 -119 -18 -24 0 -43 -3 -43 -6 0 -4 -34 -7 -75 -7 -41 0 -75 -3 -75 -7
0 -4 -29 -6 -65 -5 -36 1 -65 -1 -65 -4 0 -3 -6 -6 -12 -6 -7 0 -48 -3 -90 -7
-76 -6 -78 -5 -78 17 0 23 24 171 35 222 15 66 13 64 48 54 33 -10 83 -4 92
11 3 4 -4 6 -15 3 -11 -3 -37 4 -59 15 -21 11 -42 18 -45 15 -3 -4 -4 14 -1
40 2 25 0 49 -5 52 -6 3 -10 11 -10 16 0 6 5 7 11 3 7 -4 9 2 7 17 -1 12 -9
24 -16 25 -7 1 -8 0 -2 -3 14 -7 2 -23 -13 -17 -8 3 -11 17 -9 39 2 20 -2 43
-11 56 -9 11 -13 28 -10 35 3 8 0 14 -5 14 -6 0 -9 -9 -7 -19 5 -28 -6 -62
-17 -55 -6 4 -5 -3 1 -15 9 -16 9 -21 0 -21 -6 0 -9 -7 -5 -15 3 -10 -1 -15
-12 -15 -11 0 -13 -3 -5 -8 6 -4 9 -19 6 -34 -3 -16 -10 -25 -16 -21 -6 4 -8
0 -4 -9 3 -9 0 -21 -6 -27 -8 -8 -8 -11 1 -11 7 0 10 -14 7 -37 -2 -21 -4 -46
-4 -56 -1 -11 -6 -15 -12 -11 -8 4 -8 0 0 -15 10 -17 9 -21 -5 -21 -12 0 -15
-6 -12 -25 3 -14 1 -25 -3 -25 -5 0 -9 -5 -9 -11 0 -5 6 -7 12 -3 7 4 2 -4
-11 -19 -13 -15 -20 -31 -16 -38 6 -8 4 -10 -5 -4 -10 6 -12 4 -6 -10 4 -10 0
-28 -10 -42 -8 -14 -13 -31 -10 -39 5 -13 -13 -20 -39 -14 -5 1 -7 -2 -3 -6 4
-4 3 -13 -3 -21 -9 -10 -8 -13 5 -13 14 0 14 -3 4 -20 -7 -11 -17 -20 -22 -20
-4 0 -3 7 4 15 7 8 8 15 4 15 -5 0 -15 -9 -22 -20 -7 -12 -8 -20 -2 -20 15 0
12 -16 -5 -34 -17 -17 -20 -30 -5 -21 6 3 10 1 10 -4 0 -6 -6 -11 -14 -11 -22
0 -62 -60 -47 -70 9 -5 8 -9 -4 -13 -9 -4 -13 -3 -10 3 3 6 2 10 -4 10 -15 0
-23 -18 -11 -25 6 -4 8 -11 4 -16 -3 -5 -10 -7 -15 -3 -5 3 -9 2 -8 -3 5 -20
-14 -43 -31 -38 -13 4 -19 -1 -24 -20 -4 -14 -10 -25 -15 -25 -11 0 -11 51 0
73 7 12 6 17 -5 17 -8 0 -17 -9 -21 -20 -7 -21 -72 -66 -82 -56 -6 6 -40 -36
-35 -42 6 -6 -52 -51 -59 -46 -4 2 -10 0 -14 -6 -15 -25 -120 -55 -137 -40 -9
8 -56 4 -55 -4 2 -9 -7 -11 -50 -7 -16 1 -16 3 -3 12 12 7 8 9 -15 7 -19 -2
-29 -8 -27 -16 2 -9 -6 -12 -21 -10 -13 1 -31 -3 -39 -9 -11 -10 -20 -9 -42 2
-15 8 -32 12 -37 9 -5 -3 -9 0 -9 6 0 6 -10 8 -23 5 -15 -4 -39 3 -67 19 -24
14 -47 23 -52 20 -4 -3 -5 2 -2 10 4 11 0 16 -11 16 -9 0 -13 4 -10 10 3 6 -1
7 -9 4 -11 -4 -16 0 -16 15 0 14 -6 21 -19 21 -10 0 -26 10 -35 22 -9 13 -14
17 -10 9 4 -7 1 -17 -6 -21 -16 -10 -42 -1 -34 11 3 5 -5 13 -18 18 -29 11
-79 57 -71 65 4 3 -1 6 -9 6 -9 0 -18 9 -21 21 -3 11 -14 23 -24 25 -22 6 -67
69 -59 82 3 5 -4 12 -15 15 -12 3 -20 13 -19 24 4 33 0 42 -14 37 -11 -4 -13
0 -9 18 4 19 3 20 -7 8 -10 -12 -11 -11 -7 8 3 12 2 20 -3 17 -7 -5 -21 18
-25 40 0 6 -4 17 -7 25 -3 8 -11 34 -17 58 -7 23 -15 42 -19 42 -4 0 -9 11
-10 26 -1 14 2 23 8 19 15 -9 12 2 -5 19 -13 13 -14 20 -4 38 11 21 11 22 -4
9 -14 -11 -17 -11 -18 0 -1 8 -1 18 0 22 1 5 -3 5 -9 2 -6 -4 -9 -13 -6 -21 3
-7 1 -16 -4 -19 -5 -3 -7 9 -5 27 3 19 -1 35 -8 40 -8 5 -7 8 4 8 9 0 19 7 23
15 4 12 2 13 -14 3 -16 -10 -23 -9 -37 5 -10 10 -13 17 -8 16 21 -3 33 2 39
17 5 14 4 15 -8 5 -8 -7 -20 -10 -25 -7 -12 8 -10 49 2 57 5 3 1 9 -8 12 -14
6 -15 -2 -9 -81 3 -48 6 -95 6 -105 -1 -23 -20 -47 -38 -47 -7 0 -16 -5 -20
-11 -4 -8 5 -9 33 -5 l39 7 18 -88 c19 -91 26 -115 69 -219 l25 -62 -30 5
c-19 3 -28 1 -24 -6 4 -6 -4 -7 -24 -1 -16 5 -30 5 -30 1 0 -4 -25 -7 -55 -6
-30 1 -55 -1 -55 -4 0 -3 -21 -6 -48 -5 -26 0 -64 -3 -85 -7 -27 -5 -40 -3
-43 6 -3 7 -14 10 -25 8 -12 -4 -26 2 -35 13 -15 19 -15 19 -10 0 6 -16 4 -17
-9 -6 -9 7 -13 15 -10 18 3 3 1 10 -4 16 -16 20 -24 76 -11 76 9 0 9 4 0 15
-9 11 -10 22 -3 38 6 12 7 31 3 42 -4 11 -5 24 -3 28 3 4 0 14 -7 22 -8 9 -8
15 0 20 7 4 8 11 2 18 -6 7 -9 37 -8 69 0 32 -3 54 -8 50 -5 -3 -7 2 -3 11 3
10 2 17 -3 17 -6 0 -5 8 2 19 8 14 9 23 1 33 -6 7 -9 30 -8 51 1 20 -2 37 -6
37 -5 0 -4 11 1 25 5 13 5 27 1 29 -5 3 -11 17 -13 31 -3 13 -1 22 3 19 5 -3
9 2 9 10 0 8 -4 17 -8 20 -5 3 -7 25 -6 51 1 25 -1 43 -6 40 -4 -3 -11 2 -14
11 -3 8 -2 12 4 9 6 -3 10 5 10 19 0 14 -5 28 -10 31 -7 4 -8 11 -1 18 5 7 7
26 4 42 -3 17 -6 53 -8 80 -2 28 -4 50 -5 50 -1 0 -3 12 -4 28 -1 15 2 27 7
27 4 0 5 5 2 10 -4 6 -11 8 -16 5 -10 -7 -6 46 5 64 4 7 0 11 -11 11 -11 0
-14 3 -7 8 5 4 9 25 7 47 -9 98 -11 111 -18 128 -5 11 -3 17 6 17 11 0 11 2 0
9 -12 7 -12 13 -3 24 7 7 9 17 5 21 -8 7 -11 22 -19 79 -3 26 -1 37 8 37 10 0
10 2 -1 9 -7 5 -11 13 -9 17 3 5 1 36 -3 69 -5 33 -11 83 -13 110 -9 100 -18
150 -29 164 -9 11 -9 13 -1 8 17 -10 25 19 14 48 -5 14 -6 25 -2 25 4 0 0 5
-8 10 -9 6 -11 10 -3 10 7 0 10 7 7 15 -4 8 -10 12 -15 9 -5 -3 -9 -1 -9 5 0
5 5 13 10 16 12 8 9 37 -5 47 -6 5 -5 8 3 8 6 0 12 5 12 11 0 5 -4 8 -8 5 -5
-3 -8 26 -6 64 1 39 -1 70 -5 70 -4 0 -6 17 -3 38 5 53 5 51 -5 112 -5 31 -6
68 -2 83 4 15 4 29 -1 32 -4 3 -6 15 -2 27 3 12 1 19 -4 15 -6 -3 -11 3 -11
14 -1 12 3 17 9 13 7 -5 8 -2 3 6 -5 7 -10 43 -11 79 -2 36 -4 71 -4 76 -1 6
0 19 2 30 3 19 -3 20 -120 23 -102 2 -123 0 -128 -13z m946 -2560 c0 -5 -5 -3
-10 5 -5 8 -10 20 -10 25 0 6 5 3 10 -5 5 -8 10 -19 10 -25z m1663 -300 c-7
-21 -12 -19 -10 4 0 11 5 18 9 15 4 -3 5 -11 1 -19z m-1458 -53 c-3 -3 -11 0
-18 7 -9 10 -8 11 6 5 10 -3 15 -9 12 -12z m79 -90 c3 -5 -1 -9 -9 -9 -8 0
-12 4 -9 9 3 4 7 8 9 8 2 0 6 -4 9 -8z m461 -182 c3 -5 1 -10 -4 -10 -6 0 -11
5 -11 10 0 6 2 10 4 10 3 0 8 -4 11 -10z m-470 -159 c-6 -5 -25 10 -25 20 0 5
6 4 14 -3 8 -7 12 -15 11 -17z"/>
<path d="M2363 4590 c-18 -4 -40 -13 -48 -20 -12 -10 -18 -10 -29 -1 -11 10
-21 5 -50 -24 -35 -35 -52 -71 -22 -46 10 8 16 9 21 1 9 -15 25 -2 25 19 0 10
7 24 15 31 12 10 15 10 15 -3 0 -8 -6 -17 -12 -20 -7 -2 -10 -8 -6 -12 7 -7
70 27 112 60 25 19 19 23 -21 15z"/>
<path d="M2432 4578 c-7 -7 -12 -17 -12 -24 0 -7 -6 -15 -12 -17 -7 -3 -8 -6
-3 -6 6 0 21 8 35 19 17 13 20 20 10 20 -13 0 -13 1 0 10 8 5 10 10 5 10 -6 0
-16 -5 -23 -12z"/>
<path d="M2522 4570 c-37 -23 -42 -33 -9 -21 12 4 36 7 52 5 17 -1 22 0 12 3
-9 2 -15 8 -12 13 11 18 -13 18 -43 0z"/>
<path d="M2173 4525 c-11 -13 -18 -26 -16 -29 9 -8 33 6 43 25 15 28 -3 30
-27 4z"/>
<path d="M2650 4529 c0 -5 9 -9 20 -9 11 0 20 2 20 4 0 2 -9 6 -20 9 -11 3
-20 1 -20 -4z"/>
<path d="M2725 4530 c-3 -5 -1 -10 4 -10 6 0 11 5 11 10 0 6 -2 10 -4 10 -3 0
-8 -4 -11 -10z"/>
<path d="M2763 4523 c9 -2 14 -9 11 -15 -4 -6 1 -6 13 1 11 6 24 7 28 3 5 -4
6 -2 2 3 -3 6 -20 11 -39 12 -18 0 -25 -1 -15 -4z"/>
<path d="M2116 4511 c-3 -5 1 -11 9 -14 9 -4 12 -1 8 9 -6 16 -10 17 -17 5z"/>
<path d="M1810 4340 c-6 -11 -15 -18 -21 -14 -5 3 -25 -10 -44 -30 -18 -20
-40 -36 -47 -36 -15 -1 -69 -72 -89 -117 -8 -18 -17 -33 -21 -33 -5 0 -8 -7
-8 -15 0 -8 -4 -15 -10 -15 -5 0 -10 -6 -10 -14 0 -8 -7 -17 -15 -20 -19 -7
-65 -107 -65 -140 0 -12 -3 -26 -7 -30 -10 -10 -12 -39 -13 -189 0 -76 5 -159
11 -185 6 -26 10 -73 10 -104 -2 -60 9 -89 45 -123 30 -28 44 -58 44 -95 0
-29 -1 -30 -16 -16 -19 20 -31 21 -15 2 9 -10 9 -16 1 -21 -6 -4 -8 -14 -6
-23 3 -10 2 -47 -2 -85 -9 -72 -2 -83 25 -39 9 15 24 34 33 43 9 9 16 27 14
40 -1 13 -3 28 -3 32 -1 5 -6 5 -11 2 -12 -8 -9 17 4 26 7 5 15 95 17 182 0 9
3 15 7 13 4 -2 6 13 4 34 -2 21 3 61 11 89 9 31 11 51 5 51 -6 0 -7 7 -2 18 4
9 8 54 8 98 1 61 -2 80 -11 77 -7 -3 -10 -9 -7 -14 3 -5 -2 -6 -10 -3 -10 4
-16 1 -16 -7 0 -33 -49 69 -52 108 -1 7 -4 11 -7 9 -3 -2 -12 2 -19 10 -7 8
-10 15 -7 15 3 1 10 3 15 4 6 1 13 3 18 4 4 1 0 6 -8 11 -10 6 -11 10 -2 10
14 0 16 27 2 32 -9 3 -6 22 23 123 7 24 30 58 57 85 25 25 55 56 65 71 11 14
35 34 53 44 21 13 30 25 27 34 -3 9 -3 12 1 9 10 -11 86 70 82 89 -5 25 -25
27 -38 3z m-260 -637 c0 -21 -3 -24 -9 -14 -5 8 -7 20 -4 28 8 21 13 15 13
-14z"/>
<path d="M3080 4328 c19 -18 33 -35 30 -38 -3 -3 4 -9 15 -14 11 -5 43 -35 70
-67 28 -31 53 -55 56 -53 4 2 13 -4 20 -13 10 -12 10 -14 2 -9 -7 4 -13 2 -13
-4 0 -6 12 -15 26 -20 35 -14 36 -13 24 9 -5 11 -7 21 -2 24 4 2 2 2 -5 1 -20
-5 -75 65 -68 87 4 11 2 19 -4 19 -6 0 -11 6 -11 14 0 27 -82 83 -130 90 l-45
7 35 -33z"/>
<path d="M3266 4186 c3 -9 11 -16 16 -16 13 0 5 23 -10 28 -7 2 -10 -2 -6 -12z"/>
<path d="M3338 4104 c-4 -3 -4 -24 -1 -46 3 -29 1 -38 -8 -32 -8 4 -9 3 -5 -4
4 -6 13 -9 21 -6 11 5 13 16 9 48 -8 46 -8 48 -16 40z"/>
<path d="M3375 4040 c9 -31 25 -50 25 -29 0 7 -8 23 -16 34 -16 19 -16 19 -9
-5z"/>
<path d="M3350 4001 c0 -6 5 -13 10 -16 6 -3 10 -15 10 -26 0 -11 4 -18 9 -15
4 3 6 -6 3 -21 -3 -18 -1 -24 7 -19 6 4 11 2 11 -4 0 -7 -8 -9 -19 -5 -15 4
-20 1 -20 -12 0 -10 -3 -29 -5 -43 -2 -14 -5 -35 -5 -48 -1 -13 -5 -20 -11
-17 -6 3 -7 -1 -4 -9 8 -22 -13 -20 -25 2 -11 19 -12 18 -15 -19 -2 -18 5 -32
21 -44 12 -10 23 -25 23 -34 0 -10 6 -23 13 -30 10 -11 9 -13 -5 -8 -12 4 -15
2 -11 -9 3 -7 8 -14 12 -14 3 0 7 -17 7 -37 2 -54 8 -82 28 -135 39 -100 84
-50 80 90 -1 45 2 82 7 82 5 0 4 12 -2 27 -6 16 -6 29 -1 31 9 3 6 42 -5 72
-4 8 -5 20 -4 27 1 6 -3 14 -8 17 -5 3 -7 14 -5 24 3 9 -2 39 -10 66 -8 27
-13 53 -10 58 3 4 -2 5 -12 1 -13 -5 -15 -2 -9 17 4 14 3 20 -2 17 -6 -4 -15
5 -21 18 -11 24 -32 34 -32 16z"/>
<path d="M3310 3680 c0 -5 5 -10 11 -10 5 0 7 5 4 10 -3 6 -8 10 -11 10 -2 0
-4 -4 -4 -10z"/>
<path d="M2802 3612 c-12 -2 -20 -7 -17 -11 2 -5 -9 -7 -25 -5 -21 3 -30 -1
-34 -14 -3 -10 -19 -26 -36 -35 -35 -21 -47 -62 -42 -146 2 -19 5 -21 16 -12
9 8 15 8 18 1 1 -5 30 12 63 39 33 26 80 55 105 64 35 12 39 16 20 17 l-25 1
25 13 c25 14 65 24 132 33 21 3 35 9 32 14 -3 5 0 9 5 9 6 0 11 5 11 10 0 7
-28 10 -77 8 -69 -2 -116 3 -140 14 -5 2 -18 2 -31 0z"/>
<path d="M2144 3571 c3 -5 -7 -11 -22 -14 -59 -12 -66 -14 -69 -24 -2 -5 30
-18 71 -27 41 -10 83 -24 93 -32 16 -12 14 -13 -22 -14 l-40 -1 55 -18 c30
-10 71 -27 90 -39 41 -26 58 -28 40 -7 -10 12 -10 15 0 15 7 0 19 -8 26 -17
19 -27 24 -13 12 42 -8 38 -20 58 -51 87 -30 27 -44 34 -49 25 -6 -9 -11 -8
-21 4 -6 9 -19 16 -27 17 -8 0 -26 4 -39 8 -19 6 -22 4 -16 -7 6 -11 5 -12 -6
-1 -15 14 -33 16 -25 3z"/>
<path d="M3185 3521 c-4 -7 -1 -19 7 -28 7 -9 11 -19 10 -22 -2 -3 10 -11 27
-18 35 -15 38 -12 14 13 -10 9 -18 23 -18 31 0 7 -4 12 -9 12 -5 0 -12 5 -16
11 -6 9 -9 9 -15 1z"/>
<path d="M2987 3491 c54 -18 83 -37 83 -52 0 -5 -5 -9 -11 -9 -5 0 -7 6 -4 13
4 6 0 4 -8 -5 -8 -10 -17 -15 -21 -11 -10 10 -45 16 -107 17 -53 1 -122 -23
-141 -49 -4 -5 -8 -6 -8 -1 0 11 -30 -14 -30 -25 0 -17 29 -9 58 16 39 33 48
32 56 -6 l6 -32 91 7 c62 5 89 4 84 -4 -3 -5 6 -21 22 -35 15 -14 24 -24 18
-23 -16 3 -55 -13 -55 -23 0 -5 -27 -8 -60 -7 -33 1 -63 -1 -67 -5 -3 -4 14
-7 38 -8 68 -2 91 2 106 16 7 7 27 16 44 20 29 7 30 9 24 42 -4 24 -3 33 4 28
7 -4 10 3 8 17 -1 12 3 23 10 23 7 0 18 6 25 13 6 6 17 12 23 12 23 0 34 22
19 37 -8 8 -12 18 -9 22 2 5 -7 6 -20 3 -14 -2 -25 0 -25 7 0 5 -7 8 -15 5 -8
-4 -15 -1 -15 4 0 7 -33 11 -87 10 l-88 0 52 -17z m-82 -61 c3 -5 -1 -10 -10
-10 -9 0 -13 5 -10 10 3 6 8 10 10 10 2 0 7 -4 10 -10z"/>
<path d="M3155 3500 c-3 -5 -1 -10 4 -10 6 0 11 5 11 10 0 6 -2 10 -4 10 -3 0
-8 -4 -11 -10z"/>
<path d="M1974 3415 c-46 -21 -93 -69 -80 -82 3 -3 18 2 33 12 l28 18 -18 -26
c-22 -34 -21 -37 4 -37 11 0 17 -4 14 -10 -4 -6 6 -10 24 -10 16 0 33 5 37 12
5 8 2 9 -10 5 -12 -5 -16 -3 -13 5 2 7 10 12 16 10 7 -1 20 2 31 8 12 7 21 7
25 0 7 -12 84 -13 102 -2 6 4 15 20 18 35 8 32 11 33 53 7 18 -11 42 -20 55
-20 22 0 22 1 -3 20 -14 10 -27 17 -29 14 -2 -2 -10 1 -16 6 -18 15 -98 23
-149 16 -30 -5 -63 -20 -94 -43 -36 -28 -41 -30 -23 -9 l24 26 -23 0 c-21 0
-22 2 -10 14 8 8 33 24 55 35 55 29 14 26 -51 -4z"/>
<path d="M3421 3360 c0 -8 4 -24 9 -35 l9 -20 0 20 c0 11 -4 27 -9 35 -9 13
-10 13 -9 0z"/>
<path d="M3497 3310 c-37 -32 -57 -38 -57 -17 0 6 -6 3 -12 -7 -8 -15 -8 -21
0 -24 7 -2 12 -8 12 -13 0 -6 -5 -7 -12 -3 -8 5 -9 -5 -5 -37 10 -71 16 -90
28 -105 19 -24 31 6 14 33 -13 19 -13 24 0 36 8 8 12 17 8 20 -7 7 67 38 77
32 4 -2 14 13 23 35 14 36 14 40 0 40 -8 0 -17 9 -20 20 -7 27 -16 25 -56 -10z"/>
<path d="M1420 3188 c0 -27 19 -80 20 -55 0 4 9 3 19 -2 14 -8 22 -7 31 4 6 7
17 12 25 9 7 -3 16 -1 20 5 3 6 1 11 -4 11 -6 0 -11 7 -11 16 0 24 -30 43 -67
44 -31 0 -33 -2 -33 -32z"/>
<path d="M3417 3004 c3 -7 9 -14 14 -14 14 0 10 17 -5 23 -10 4 -13 1 -9 -9z"/>
<path d="M2611 2921 c-27 -28 -46 -41 -48 -33 -3 6 -15 12 -28 12 -14 0 -40
14 -58 30 -42 37 -76 40 -70 8 4 -23 -10 -35 -59 -54 -21 -8 -23 -42 -3 -68
12 -15 23 -18 67 -13 51 5 54 4 91 -35 23 -25 48 -40 62 -40 26 0 74 31 75 49
0 17 33 33 70 33 25 0 33 6 44 31 16 38 10 80 -10 72 -17 -6 -54 24 -54 44 0
26 -36 10 -79 -36z m-147 -6 c3 -8 1 -15 -4 -15 -6 0 -10 7 -10 15 0 8 2 15 4
15 2 0 6 -7 10 -15z"/>
<path d="M1590 2927 c0 -8 7 -20 15 -27 10 -9 15 -9 15 -1 0 6 -5 11 -11 11
-5 0 -8 4 -4 9 3 5 1 12 -5 16 -5 3 -10 0 -10 -8z"/>
<path d="M2878 2620 c-9 -6 -52 -11 -95 -11 -65 -1 -82 -4 -102 -22 -13 -12
-21 -16 -17 -9 6 10 -4 11 -46 6 -64 -7 -95 -7 -173 2 -69 8 -70 8 -152 -2
-36 -4 -73 -2 -91 4 -31 11 -72 6 -72 -8 0 -4 29 -17 64 -28 56 -19 73 -20
122 -11 33 6 143 9 268 6 234 -5 261 0 322 51 36 30 37 32 14 32 -14 0 -33 -5
-42 -10z"/>
<path d="M3156 1912 c-3 -5 1 -9 9 -9 8 0 12 4 9 9 -3 4 -7 8 -9 8 -2 0 -6 -4
-9 -8z"/>
<path d="M3414 1899 c4 -13 10 -45 13 -70 5 -41 -1 -56 -62 -175 -37 -71 -96
-180 -132 -243 -102 -179 -208 -396 -258 -526 -12 -33 -62 -145 -110 -250
-128 -279 -276 -597 -287 -618 -8 -16 15 -17 459 -15 l468 3 31 59 c18 34 34
54 38 47 9 -14 36 -14 36 0 0 5 -5 7 -12 3 -7 -5 -9 -2 -5 9 4 12 2 14 -10 10
-25 -10 -10 20 18 35 14 7 41 11 65 8 67 -8 217 12 293 39 39 14 75 24 80 20
5 -3 12 -39 16 -80 5 -45 13 -79 22 -87 8 -6 21 -24 29 -40 l15 -28 499 0 500
0 0 568 0 569 -112 21 c-62 11 -146 26 -185 32 -40 7 -110 28 -155 47 -104 44
-146 57 -283 88 -60 14 -189 52 -285 84 -96 32 -199 64 -228 72 -49 12 -62 22
-183 150 -72 76 -150 164 -174 196 -24 32 -58 67 -76 77 l-32 19 7 -24z"/>
<path d="M2018 1670 c10 -12 18 -16 21 -9 2 6 -3 15 -10 20 -24 15 -29 10 -11
-11z"/>
<path d="M2124 1639 c-3 -6 0 -15 7 -20 12 -7 12 -9 0 -9 -8 0 -12 -3 -8 -6 3
-3 14 -1 24 5 11 7 13 11 4 11 -7 0 -11 6 -7 15 6 17 -9 20 -20 4z"/>
<path d="M2131 1581 c-9 -6 -10 -11 -2 -15 6 -4 11 -2 11 4 0 6 5 8 12 4 7 -4
8 -3 4 4 -8 14 -7 14 -25 3z"/>
<path d="M2260 1579 c0 -5 5 -7 10 -4 6 3 10 8 10 11 0 2 -4 4 -10 4 -5 0 -10
-5 -10 -11z"/>
<path d="M2281 1504 c0 -11 3 -14 6 -6 3 7 2 16 -1 19 -3 4 -6 -2 -5 -13z"/>
<path d="M1861 1274 c0 -11 3 -14 6 -6 3 7 2 16 -1 19 -3 4 -6 -2 -5 -13z"/>
<path d="M2860 1175 c0 -5 5 -17 10 -25 5 -8 10 -10 10 -5 0 6 -5 17 -10 25
-5 8 -10 11 -10 5z"/>
<path d="M3997 183 c-14 -13 -6 -25 8 -13 12 10 15 9 15 -6 0 -14 3 -15 12 -6
10 10 10 15 -2 22 -18 12 -25 12 -33 3z"/>
<path d="M3877 163 c-4 -3 -7 -11 -7 -17 0 -6 5 -5 12 2 6 6 9 14 7 17 -3 3
-9 2 -12 -2z"/>
<path d="M3626 145 c-6 -18 29 -41 39 -25 10 16 -2 40 -19 40 -7 0 -16 -7 -20
-15z m34 -5 c0 -5 -4 -10 -10 -10 -5 0 -10 5 -10 10 0 6 5 10 10 10 6 0 10 -4
10 -10z"/>
<path d="M3758 139 c12 -11 27 -17 34 -13 13 8 -17 34 -41 34 -11 0 -9 -5 7
-21z"/>
<path d="M3896 144 c-4 -10 -1 -14 6 -12 15 5 23 28 10 28 -5 0 -13 -7 -16
-16z"/>
<path d="M4030 75 c-7 -9 -8 -15 -2 -15 5 0 12 7 16 15 3 8 4 15 2 15 -2 0 -9
-7 -16 -15z"/>
<path d="M3784 59 c-10 -17 23 -46 38 -31 8 8 8 15 -2 27 -15 18 -26 19 -36 4z
m31 -9 c3 -5 -1 -10 -10 -10 -9 0 -13 5 -10 10 3 6 8 10 10 10 2 0 7 -4 10
-10z"/>
<path d="M3906 62 c-2 -4 4 -13 14 -20 14 -9 21 -8 29 2 9 10 8 15 -5 20 -21
8 -32 8 -38 -2z"/>
<path d="M4055 59 c-9 -14 -2 -20 14 -10 8 6 9 11 3 15 -6 3 -14 1 -17 -5z"/>
<path d="M3680 40 c0 -5 5 -10 11 -10 6 0 9 -7 5 -15 -6 -17 9 -21 19 -5 7 12
-12 40 -26 40 -5 0 -9 -4 -9 -10z"/>
<path d="M3597 24 c-12 -13 -7 -20 13 -20 11 0 19 5 17 10 -4 13 -21 18 -30
10z"/>
</g>
</svg>
